<?xml version="1.0" standalone="no"?><!DOCTYPE svg PUBLIC "-//W3C//DTD SVG 1.1//EN" "http://www.w3.org/Graphics/SVG/1.1/DTD/svg11.dtd"><svg class="icon" width="200px" height="199.61px" viewBox="0 0 1026 1024" version="1.1" xmlns="http://www.w3.org/2000/svg"><path fill="#000000" d="M393.821091 875.845818a48.453818 48.453818 0 0 1-34.443636-14.266182L25.832727 528.034909a48.779636 48.779636 0 0 1 0-68.887273c9.216-9.192727 21.434182-14.266182 34.443637-14.266181s25.250909 5.073455 34.443636 14.266181l299.124364 299.124364L943.104 208.965818a48.360727 48.360727 0 0 1 34.443636-14.266182c13.009455 0 25.250909 5.050182 34.443637 14.266182a48.802909 48.802909 0 0 1 0 68.887273L428.264727 861.579636a48.314182 48.314182 0 0 1-34.443636 14.266182z" /></svg>