<?xml version="1.0" standalone="no"?><!DOCTYPE svg PUBLIC "-//W3C//DTD SVG 1.1//EN" "http://www.w3.org/Graphics/SVG/1.1/DTD/svg11.dtd"><svg class="icon" width="200px" height="200.00px" viewBox="0 0 1024 1024" version="1.1" xmlns="http://www.w3.org/2000/svg"><path fill="#000000" d="M843.34765625 962H180.65234375C115.26171875 962 62 908.73828125 62 843.34765625V180.65234375C62 115.26171875 115.26171875 62 180.65234375 62h662.6953125c65.390625 0 118.65234375 53.26171875 118.65234375 118.65234375v662.6953125c0 65.390625-53.26171875 118.65234375-118.65234375 118.65234375zM180.65234375 141.1015625c-21.796875 0-39.55078125 17.75390625-39.55078125 39.55078125v662.6953125c0 21.796875 17.75390625 39.55078125 39.55078125 39.55078125h662.6953125c21.796875 0 39.55078125-17.75390625 39.55078125-39.55078125V180.65234375c0-21.796875-17.75390625-39.55078125-39.55078125-39.55078125H180.65234375zM444.32421875 294.03124999H254.48046875c-21.88476563 0-39.55078125-17.66601563-39.55078125-39.55078124s17.66601563-39.55078125 39.55078125-39.55078125h189.84375c21.88476563 0 39.55078125 17.66601563 39.55078125 39.55078125s-17.66601563 39.55078125-39.55078125 39.55078126zM254.48046875 483.875c-21.88476563 0-39.55078125-17.66601563-39.55078125-39.55078125V254.48046875c0-21.88476563 17.66601563-39.55078125 39.55078125-39.55078125s39.55078125 17.66601563 39.55078124 39.55078125v189.84375c0 21.88476563-17.66601563 39.55078125-39.55078124 39.55078125zM435.97460937 476.05273437c-10.10742188 0-20.21484375-3.8671875-27.94921874-11.6015625L273.81640625 330.2421875c-15.46875001-15.46875001-15.46875001-40.51757813 0-55.89843751 15.46875001-15.46875001 40.51757813-15.46875001 55.8984375 0l134.20898438 134.20898439c15.46875001 15.46875001 15.46875001 40.51757813-1e-8 55.89843749-7.64648438 7.734375-17.75390625 11.6015625-27.94921875 11.6015625zM769.51953125 809.0703125H579.67578125c-21.88476563 0-39.55078125-17.66601563-39.55078125-39.55078125s17.66601563-39.55078125 39.55078125-39.55078124h189.84375c21.88476563 0 39.55078125 17.66601563 39.55078125 39.55078124s-17.66601563 39.55078125-39.55078125 39.55078125zM769.51953125 809.0703125c-21.88476563 0-39.55078125-17.66601563-39.55078124-39.55078125V579.67578125c0-21.88476563 17.66601563-39.55078125 39.55078124-39.55078125s39.55078125 17.66601563 39.55078125 39.55078125v189.84375c0 21.88476563-17.66601563 39.55078125-39.55078125 39.55078125zM722.234375 761.2578125c-10.10742188 0-20.21484375-3.8671875-27.94921875-11.60156249L559.98828125 615.44726563c-15.46875001-15.46875001-15.46875001-40.51757813 0-55.89843751 15.46875001-15.46875001 40.51757813-15.46875001 55.8984375 0L750.18359375 693.7578125c15.46875001 15.46875001 15.46875001 40.51757813 0 55.89843751-7.734375 7.82226563-17.84179689 11.6015625-27.94921875 11.60156249z" /></svg>