<?xml version="1.0" standalone="no"?><!DOCTYPE svg PUBLIC "-//W3C//DTD SVG 1.1//EN" "http://www.w3.org/Graphics/SVG/1.1/DTD/svg11.dtd"><svg class="icon" width="200px" height="200.00px" viewBox="0 0 1024 1024" version="1.1" xmlns="http://www.w3.org/2000/svg"><path fill="#000000" d="M339.5 512l76.5 102a30 30 0 0 1-48 36l-90-120a30 30 0 0 1 0-36l90-120a30 30 0 1 1 48 36L339.5 512zM698 614a30 30 0 0 0 48 36l90-120a30 30 0 0 0 0-36l-90-120a30 30 0 1 0-48 36l76.5 102-76.5 102zM556.28 638.51a30 30 0 0 1-58.56-13.02l60-270a30 30 0 0 1 58.56 13.02l-60 270z"  /><path fill="#000000" d="M851.9 725.66a30 30 0 1 1 39.36 45.3l-206.7 183.69a30 30 0 0 1-19.65 7.35H214.85C163.4 962 122 919.46 122 867.38V156.62C122 104.54 163.4 62 214.85 62h594.3C860.6 62 902 104.54 902 156.62v126.54a30 30 0 0 1-60 0V156.62C842 137.3 827.09 122 809.15 122H214.85C196.91 122 182 137.3 182 156.62v710.76C182 886.7 196.91 902 214.85 902h438.84l198.24-176.34z"  /><path fill="#000000" d="M902 747.5a30 30 0 0 1-60 0V662a30 30 0 0 1 60 0v85.5z"  /></svg>