<?xml version="1.0" standalone="no"?><!DOCTYPE svg PUBLIC "-//W3C//DTD SVG 1.1//EN" "http://www.w3.org/Graphics/SVG/1.1/DTD/svg11.dtd"><svg class="icon" width="200px" height="200.00px" viewBox="0 0 1024 1024" version="1.1" xmlns="http://www.w3.org/2000/svg"><path fill="#000000" d="M107.45 960c-11.38 0-22.5-4.5-30.67-12.67-9.75-9.73-14.31-23.66-12.21-37.28l18.11-117.42c1.42-9.2 5.64-17.53 12.21-24.08l307.25-307.23C359.18 354.4 383.7 230.95 465.86 148.8 520.54 94.11 593.23 64 670.57 64c77.33 0 150.03 30.11 204.71 84.8 112.88 112.88 112.88 296.54 0 409.42-82.15 82.15-205.61 106.67-312.52 63.73l-62.38 62.38-0.51 45.6c-0.28 23.39-19.51 42.62-42.87 42.88l-45.62 0.51-21.7 21.72-0.52 45.6c-0.26 23.37-19.49 42.61-42.86 42.86l-45.61 0.51-45.17 45.18c-6.65 6.61-14.98 10.81-24.14 12.2L114.02 959.5c-2.18 0.33-4.38 0.5-6.57 0.5z m26.85-156.32l-15.7 101.78 101.8-15.7 45.69-45.69c8.06-8.06 18.77-12.57 30.17-12.7l40.29-0.46 0.46-40.28c0.14-11.41 4.65-22.13 12.72-30.19l27.07-27.09c8.09-8.08 18.83-12.58 30.24-12.69l40.22-0.46 0.46-40.28c0.14-11.43 4.65-22.15 12.72-30.2l77.8-77.79c7.91-7.91 19.96-9.95 30.03-5.13 90.51 43.39 198.92 24.96 269.75-45.86 92.33-92.33 92.33-242.56 0-334.89-44.73-44.73-104.2-69.36-167.44-69.36-63.25 0-122.72 24.63-167.45 69.36-70.83 70.82-89.26 179.24-45.86 269.76a26.327 26.327 0 0 1-5.13 30.02L134.3 803.68z m89.11 85.62c-0.02 0-0.04 0-0.06 0.01l0.06-0.01z m-91.26-83.47l-0.02 0.01s0.01-0.01 0.02-0.01z m275.47-32.45h-0.05 0.05z m449.03-233.8h0.13-0.13z"  /><path fill="#000000" d="M754.43 338.47c-17.64 0-35.27-6.7-48.69-20.14-26.85-26.84-26.85-70.54 0-97.38 13-13.01 30.3-20.18 48.7-20.18s35.7 7.17 48.7 20.18c26.84 26.84 26.84 70.54-0.01 97.38-13.42 13.44-31.06 20.14-48.7 20.14z m0.01-84.99c-4.32 0-8.38 1.67-11.43 4.74-6.31 6.31-6.31 16.55-0.01 22.85 6.31 6.31 16.55 6.31 22.86 0 6.29-6.31 6.29-16.55 0-22.85a15.996 15.996 0 0 0-11.42-4.74z"  /></svg>