<?xml version="1.0" standalone="no"?><!DOCTYPE svg PUBLIC "-//W3C//DTD SVG 1.1//EN" "http://www.w3.org/Graphics/SVG/1.1/DTD/svg11.dtd"><svg class="icon" width="200px" height="200.00px" viewBox="0 0 1024 1024" version="1.1" xmlns="http://www.w3.org/2000/svg"><path fill="#000000" d="M830.75000029 437.00000029h-637.50000058a56.25 56.25 0 0 0-56.25 56.25v412.49999971a56.25 56.25 0 0 0 56.25 56.25h637.50000058a56.25 56.25 0 0 0 56.25-56.25v-412.49999971a56.25 56.25 0 0 0-56.25-56.25z m-18.75000058 74.99999971v375.00000029h-599.99999942v-375.00000029h599.99999942zM512 62a225 225 0 0 0-225 225v225h450v-225a225 225 0 0 0-225-225z m7.49999971 75.18750029A150.00000029 150.00000029 0 0 1 662.00000029 287v150.00000029h-300.00000058v-150.00000029a150.00000029 150.00000029 0 0 1 150.00000029-150.00000029l7.49999971 0.18750058zM474.49999971 586.99999971m37.50000029 0l0 0q37.50000029 0 37.50000029 37.50000029l0 150.00000029q0 37.50000029-37.50000029 37.49999942l0 0q-37.50000029 0-37.50000029-37.49999942l0-150.00000029q0-37.50000029 37.50000029-37.50000029Z" /></svg>