<?xml version="1.0" standalone="no"?><!DOCTYPE svg PUBLIC "-//W3C//DTD SVG 1.1//EN" "http://www.w3.org/Graphics/SVG/1.1/DTD/svg11.dtd"><svg class="icon" width="200px" height="200.00px" viewBox="0 0 1024 1024" version="1.1" xmlns="http://www.w3.org/2000/svg"><path fill="#000000" d="M75.09333333 75.09333333h873.81333334a48.54518557 48.54518557 0 0 1 48.54518556 48.54518557v776.7229622a48.54518557 48.54518557 0 0 1-48.54518556 48.54518557H75.09333333a48.54518557 48.54518557 0 0 1-48.54518556-48.54518557V123.6385189a48.54518557 48.54518557 0 0 1 48.54518556-48.54518557z m48.54518557 97.09037v679.63259334h776.7229622V172.18370333H123.6385189z m145.63555555 509.72444444H172.18370333v-339.81629554h97.09037112l97.09037 97.09036999 97.09036998-97.09036999h97.09037114v339.81629554h-97.09037114v-194.18073998l-97.09036998 97.09036999-97.09037-97.09036999v194.18073998z m533.99703666-145.63555556h97.09036999l-145.63555555 145.63555556-145.63555556-145.63555556h97.09037113v-194.18073998h97.09036999v194.18073998z" /></svg>