<?xml version="1.0" standalone="no"?><!DOCTYPE svg PUBLIC "-//W3C//DTD SVG 1.1//EN" "http://www.w3.org/Graphics/SVG/1.1/DTD/svg11.dtd"><svg class="icon" width="200px" height="200.00px" viewBox="0 0 1024 1024" version="1.1" xmlns="http://www.w3.org/2000/svg"><path fill="#000000" d="M94.33333344 230.54545437h835.33333312c26.43636375 0 47.79393938-20.848485 47.79393938-46.54545468 0-25.68484875-21.34545469-46.54545469-47.79393938-46.54545469H94.33333344C67.94545437 137.454545 46.53939406 158.30303 46.53939406 183.99999969s21.40606031 46.54545469 47.79393938 46.54545469z m835.32121218 232.7272725H94.33333344C67.88484875 463.27272688 46.53939406 484.12121188 46.53939406 509.81818156s21.34545469 46.54545469 47.79393938 46.54545469h835.33333312c26.43636375 0 47.79393938-20.848485 47.79393938-46.54545469-0.01212094-25.69696969-21.49090875-46.54545469-47.80606031-46.54545468z m0 329.66060625H94.33333344c-26.37575719 0-47.79393938 20.848485-47.79393938 46.54545469s21.40606031 46.54545469 47.79393938 46.54545469h835.33333312c26.43636375 0 47.79393938-20.848485 47.79393938-46.54545469-0.01212094-25.68484875-21.35757563-46.54545469-47.80606031-46.54545469z m0 0" /></svg>