<?xml version="1.0" standalone="no"?><!DOCTYPE svg PUBLIC "-//W3C//DTD SVG 1.1//EN" "http://www.w3.org/Graphics/SVG/1.1/DTD/svg11.dtd"><svg class="icon" width="200px" height="200.00px" viewBox="0 0 1024 1024" version="1.1" xmlns="http://www.w3.org/2000/svg"><path fill="#000000" d="M726.01012637 62.00050625A134.99570566 134.99570566 0 0 1 821.35084326 101.57112266l114.15574336 113.98699863a90.27837773 90.27837773 0 0 1 26.49290713 63.86984297v547.57633008a134.99570566 134.99570566 0 0 1-134.99570566 134.99570566H196.99570567a134.99570566 134.99570566 0 0 1-134.99570567-134.99570566v-539.98282178-7.5935083a90.27837773 90.27837773 0 0 1 26.49290713-63.86984297l113.90262627-113.98699863A134.99570566 134.99570566 0 0 1 298.24248448 62.00050625z m168.74463164 247.46400263H129.49785283v517.53978545a67.49785283 67.49785283 0 0 0 67.49785283 67.49785284h630.00808242a67.49785283 67.49785283 0 0 0 67.49785284-67.49785284zM512.04193262 433.23869638a33.74892598 33.74892598 0 0 1 33.74892686 29.192821V677.91841191l54.84200536-54.757633a33.74892598 33.74892598 0 0 1 50.62338985 43.87360429l-3.29052041 3.79675459L568.2338958 751.49107138a78.80374336 78.80374336 0 0 1-105.80288467 5.14671153l-5.65294482-5.14671153-80.74430684-80.74430595a33.74892598 33.74892598 0 0 1 43.95797666-50.62338985l3.79675459 3.29052041L478.29300664 677.91841191V466.98762237a33.74892598 33.74892598 0 0 1 33.74892598-33.74892599zM726.01012637 129.49835908H298.24248448a67.49785283 67.49785283 0 0 0-42.77676446 15.27138897l-4.97796592 4.55610498-92.80954775 92.80954775h708.72745342l-92.80954776-92.80954775A67.49785283 67.49785283 0 0 0 726.09449873 129.49835908z" /></svg>