<?xml version="1.0" standalone="no"?><!DOCTYPE svg PUBLIC "-//W3C//DTD SVG 1.1//EN" "http://www.w3.org/Graphics/SVG/1.1/DTD/svg11.dtd"><svg class="icon" width="200px" height="200.00px" viewBox="0 0 1024 1024" version="1.1" xmlns="http://www.w3.org/2000/svg"><path fill="#000000" d="M755.495966 0.000576A153.595114 153.595114 0 0 1 863.972515 45.023144l129.883868 129.691874a102.716732 102.716732 0 0 1 30.143041 72.669688v623.02018a153.595114 153.595114 0 0 1-153.595114 153.595114H153.595114a153.595114 153.595114 0 0 1-153.595114-153.595114v-614.380455-8.639725a102.716732 102.716732 0 0 1 30.143041-72.669688l129.595877-129.691874A153.595114 153.595114 0 0 1 268.791449 0.000576z m191.993892 281.559043H76.797557v588.845267a76.797557 76.797557 0 0 0 76.797557 76.797557h716.809196a76.797557 76.797557 0 0 0 76.797557-76.797557zM512.04771 422.387139a38.398778 38.398778 0 0 1 38.398779 33.214943V700.778282l62.398015-62.302018a38.398778 38.398778 0 0 1 57.598168 49.918412l-3.743881 4.319863L575.981677 784.487619a89.661148 89.661148 0 0 1-120.380171 5.855814l-6.431795-5.855814-91.869078-91.869077a38.398778 38.398778 0 0 1 50.014409-57.598168l4.319863 3.743881L473.648932 700.778282V460.785917a38.398778 38.398778 0 0 1 38.398778-38.398778zM755.495966 76.798133H268.791449a76.797557 76.797557 0 0 0-48.670452 17.375447l-5.663819 5.183835-105.596641 105.596641h806.374347l-105.596641-105.596641A76.797557 76.797557 0 0 0 755.591963 76.798133z" /></svg>