<?xml version="1.0" standalone="no"?><!DOCTYPE svg PUBLIC "-//W3C//DTD SVG 1.1//EN" "http://www.w3.org/Graphics/SVG/1.1/DTD/svg11.dtd"><svg t="1716605284576" class="icon" viewBox="0 0 1024 1024" version="1.1" xmlns="http://www.w3.org/2000/svg" p-id="2396" xmlns:xlink="http://www.w3.org/1999/xlink" width="200" height="200"><path d="M889.9296875 867.60546875H135.74023437a69.52148438 69.52148438 0 0 1-69.43359374-69.43359375V225.4765625a69.52148438 69.52148438 0 0 1 69.43359375-69.43359375H889.9296875a69.52148438 69.52148438 0 0 1 69.43359375 69.43359375v572.6953125a69.52148438 69.52148438 0 0 1-69.43359375 69.43359375zM135.74023437 210.22753906A15.44238281 15.44238281 0 0 0 120.5 225.4765625v572.6953125a15.44238281 15.44238281 0 0 0 15.24023438 15.23144531H889.9296875a15.44238281 15.44238281 0 0 0 15.24023438-15.24023437V225.4765625A15.44238281 15.44238281 0 0 0 889.9296875 210.22753906z" fill="#333333" p-id="2397"></path><path d="M248.9609375 424.75097656a80.859375 80.859375 0 1 1 80.859375-80.859375 80.94726563 80.94726563 0 0 1-80.859375 80.859375z m0-105.46875a24.609375 24.609375 0 1 0 24.609375 24.609375 24.609375 24.609375 0 0 0-24.609375-24.609375zM101.27832031 713.47167969A28.125 28.125 0 0 1 83.97265625 663.171875l207.62402344-162.23730469c30.26953125-23.66015625 75.53320313-21.18164063 103.04296875 5.64257813L519.64648438 628.46386719a28.125 28.125 0 1 1-39.28710938 40.27148437L355.37011719 546.85742188c-7.25976563-7.08398438-21.14648438-7.84863281-29.14453125-1.59960938L118.57519531 707.51269531a27.984375 27.984375 0 0 1-17.296875 5.95898438z" fill="#333333" p-id="2398"></path><path d="M928.8828125 775.77734375a28.125 28.125 0 0 1-25.02246094-15.2578125L749.66503906 461.18164062l-0.14941406-0.31640625a19.3359375 19.3359375 0 0 0-30.05859375-6.21386718l-198.88769531 213.13476562A28.125 28.125 0 1 1 479.48046875 629.41308594l200.30273438-214.69042969 0.70312499-0.65917969a75.5859375 75.5859375 0 0 1 119.48730469 21.97265625l153.88769531 298.7578125a28.125 28.125 0 0 1-24.97851562 41.00976563z" fill="#333333" p-id="2399"></path></svg>