<?xml version="1.0" standalone="no"?><!DOCTYPE svg PUBLIC "-//W3C//DTD SVG 1.1//EN" "http://www.w3.org/Graphics/SVG/1.1/DTD/svg11.dtd"><svg class="icon" width="200px" height="200.00px" viewBox="0 0 1024 1024" version="1.1" xmlns="http://www.w3.org/2000/svg"><path fill="#000000" d="M512 992C246.903 992 32 777.097 32 512S246.903 32 512 32s480 214.903 480 480-214.903 480-480 480z m0-90c215.391 0 390-174.609 390-390S727.391 122 512 122 122 296.609 122 512s174.609 390 390 390z m8.32-663c49.92 0 90.624 13.056 121.344 40.704 30.72 26.88 46.08 63.744 46.08 110.592 0 38.4-9.984 69.888-28.416 94.464-6.912 7.68-29.184 28.416-66.048 60.672-13.824 11.52-23.808 24.576-30.72 38.4-7.68 15.36-11.52 31.488-11.52 49.92v10.752h-88.32v-10.752c0-29.184 4.608-54.528 15.36-75.264 9.984-20.736 39.936-52.992 89.856-97.536l9.216-10.752c13.824-16.896 20.736-35.328 20.736-54.528 0-25.344-7.68-45.312-21.504-59.904-14.592-14.592-35.328-21.504-61.44-21.504-33.792 0-57.6 9.984-72.192 31.488-13.056 17.664-19.2 43.008-19.2 75.264H336c0-56.832 16.128-101.376 49.92-133.632C418.944 255.128 463.488 239 520.32 239zM482 704h50c11.046 0 20 8.954 20 20v56c0 11.046-8.954 20-20 20h-50c-11.046 0-20-8.954-20-20v-56c0-11.046 8.954-20 20-20z" /></svg>