<?xml version="1.0" standalone="no"?><!DOCTYPE svg PUBLIC "-//W3C//DTD SVG 1.1//EN" "http://www.w3.org/Graphics/SVG/1.1/DTD/svg11.dtd"><svg class="icon" width="200px" height="200.00px" viewBox="0 0 1024 1024" version="1.1" xmlns="http://www.w3.org/2000/svg"><path fill="#000000" d="M512 962C263.4715625 962 62 760.5284375 62 512S263.4715625 62 512 62s450 201.4715625 450 450-201.4715625 450-450 450z m0-84.375c201.9290625 0 365.625-163.6959375 365.625-365.625S713.9290625 146.375 512 146.375 146.375 310.0709375 146.375 512s163.6959375 365.625 365.625 365.625z m7.8-621.5625c46.8 0 84.96 12.24 113.76 38.16 28.8 25.2 43.2 59.76 43.2 103.68 0 36-9.36 65.52-26.64 88.56-6.48 7.2-27.36 26.64-61.92 56.88-12.96 10.8-22.32 23.04-28.8 36-7.2 14.4-10.8 29.52-10.8 46.8v10.08h-82.8v-10.08c0-27.36 4.32-51.12 14.4-70.56 9.36-19.44 37.44-49.68 84.24-91.44l8.64-10.08c12.96-15.84 19.44-33.12 19.44-51.12 0-23.76-7.2-42.48-20.16-56.16-13.68-13.68-33.12-20.16-57.6-20.16-31.68 0-54 9.36-67.68 29.52-12.24 16.56-18 40.32-18 70.56H347c0-53.28 15.12-95.04 46.8-125.28C424.76 271.1825 466.52 256.0625 519.8 256.0625zM483.875 692h46.875c10.355625 0 18.75 8.394375 18.75 18.75v52.5c0 10.355625-8.394375 18.75-18.75 18.75h-46.875c-10.355625 0-18.75-8.394375-18.75-18.75v-52.5c0-10.355625 8.394375-18.75 18.75-18.75z" /></svg>