<?xml version="1.0" standalone="no"?><!DOCTYPE svg PUBLIC "-//W3C//DTD SVG 1.1//EN" "http://www.w3.org/Graphics/SVG/1.1/DTD/svg11.dtd"><svg class="icon" width="200px" height="200.00px" viewBox="0 0 1024 1024" version="1.1" xmlns="http://www.w3.org/2000/svg"><path fill="#000000" d="M926.1 402.6c-16.8-17-39.2-26.6-63.2-27-4.4-0.5-17.7-1.8-36.9-3.6-9.3-21-20.6-41-33.9-59.6 8.3-18 12.4-27.1 14.3-32.1l0.3 0.1c25.3-43.9 10.3-100.3-33.5-125.7l-76.9-44.6c-14-8.1-30-12.4-46.2-12.5-32.2 0-62.8 17-78.1 43.4-1.5 2.1-9.7 13.5-22 30.7-22.8-2.3-45.8-2.2-68.6 0.1-11.5-16.3-17.3-24.5-20.8-28.7l0.2-0.1c-16.4-28.4-47-46-79.8-46-16 0-31.8 4.2-45.8 12.2l-77.1 44.3c-21.5 12.4-36.9 32.4-43.4 56.5-6.2 23-3.3 46.7 8.1 66.6 1.1 2.4 7.5 16.6 17.2 37.8-5.4 7.6-10.6 15.6-15.3 23.7-5.9 10.3-11.4 21-16.1 31.9-26 2.4-35.8 3.3-39.9 3.8-50.4 0.2-91.5 41.3-91.7 91.9l-0.2 88.9c0 24.8 9.7 48.2 27.3 65.8 16.9 16.9 38.7 26.2 61.7 26.3 2.8 0.3 20 2 45.6 4.4 8.4 17.9 18.4 35 29.8 51.2-10.6 22.9-15.6 33.9-17.7 39.8l-0.3-0.2c-12.2 20.9-15.5 46.3-9.3 69.7 6.2 23.5 21.8 43.9 42.8 56l76.9 44.6c14 8.1 29.9 12.4 46.1 12.4 32.2 0 62.8-17 78.1-43.4 1.7-2.3 11.9-16.5 26.9-37.6 19.8 1.9 39.7 2.1 59.2 0.5 14.4 20.5 21.4 30.2 25.3 34.9l-0.3 0.2c16.4 28.4 47 46 79.8 46 16 0 31.9-4.2 45.8-12.2l77.1-44.2c21.1-12 36.8-32.4 43.1-55.9 6.3-23.1 3.4-47.3-8.2-68.2-1.9-4.3-8.1-18-17.1-37.6 7.1-9.5 13.7-19.6 19.8-29.9 4.7-8.1 9-16.5 12.9-25 23.7-2.2 34-3.1 38.8-3.8v0.1c50.6-0.1 91.8-41.3 91.9-91.9l0.2-88.9c0.1-24.2-9.7-47.9-26.9-65.1zM724 680.8c-8.3 10-10.2 24-4.8 35.8 13.7 30 23.5 51.6 25.6 56.4 0.2 0.4 0.3 0.8 0.5 1 0.5 1 1 2 1.6 3 3.2 5.5 4.1 12.2 2.4 18.4-1.7 6.2-5.8 11.6-11.4 14.8l-77.1 44.3c-3.7 2.1-7.8 3.2-12 3.2-9.1 0-17.1-5.1-22.6-14.4l-0.8-1.2c-2.5-3.6-17.4-24.4-37.6-53.1-7.4-10.5-19.8-15.9-32.5-14-26.9 3.9-54.2 3.6-81-0.7-12.8-2-25.5 3.3-33 13.9-12.5 17.7-23 32.3-30.1 42.2-5.9 8.2-9.5 13.3-10.4 14.7-3 5.3-8.5 9.3-14.9 11-6.4 1.7-13.1 0.9-18.4-2.2l-76.9-44.6c-5.6-3.3-9.6-8.5-11.3-14.8-1.8-6.6-0.6-13.3 3.7-20.8l0.3-0.7c0.3-0.7 11.4-25.1 27.8-60.4 5.5-11.8 3.8-25.4-4.3-35.5-17.1-21.2-30.8-44.7-40.8-70-4.7-11.9-15.6-20.1-28.4-21.3-19.3-1.8-35.6-3.4-47.4-4.5-14-1.3-19.7-1.9-21.5-2-13.4-0.1-24.3-11-24.3-24.4l0.2-88.9c0-13.4 10.9-24.3 24.3-24.3 1.1 0 2.3-0.1 3.4-0.2 0.3 0 0.6 0 1.1-0.1 5-0.5 28.8-2.8 61.8-5.7 12.9-1.2 24.2-9.8 28.7-21.9 5.9-15.8 12.2-29.4 19.3-41.6 5.8-10.1 13-20.4 22.5-32.3 8-10 9.6-23.5 4.3-35.1-7.1-15.5-13.1-28.7-17.6-38.6-6.1-13.4-8.6-18.9-9.5-20.6-6.7-11.6-2.6-26.5 9-33.2l77.1-44.3c12-6.9 26.9-2.1 34.6 11.1l0.7 1c2 2.7 15.1 21.2 33.7 47.6 7.5 10.6 20.6 16.1 33.4 13.9 28.7-4.9 59.4-5 89-0.2 12.8 2.1 25.5-3.2 33-13.8 9.8-13.8 18.1-25.4 24.2-33.9 7.4-10.4 10.5-14.6 11.5-16.2 3.1-5.3 8.5-9.3 14.8-11 6.4-1.7 13.1-0.9 18.4 2.1l77 44.7c5.5 3.2 9.6 8.6 11.3 14.8 1.8 6.6 0.6 13.3-3.7 20.8l-1.1 1.9v0.4c-2.5 5.4-11.3 24.8-23.5 51.2-5.4 11.6-3.7 25.6 4.4 35.5 19.1 23.7 33.9 49.7 44 77.4 4.4 12.2 15.7 20.9 28.6 22.1 30.4 2.9 52.2 5.1 57.3 5.6 0.5 0.1 0.9 0.1 1.2 0.1 9.9 0.8 16.2 3.1 20.4 7.3 4.5 4.5 7.1 10.8 7.1 17.2l-0.2 89c0 13.8-11.6 24.3-26.9 24.4 0 0-0.8 0-2.2 0.2-5.8 0.6-28.6 2.7-60 5.5-12.8 1.2-23.6 9.3-28.4 21.2-5.6 13.9-10.9 25.2-16.9 35.5-7.4 12.4-16.1 24.6-26.7 37.3zM595.9 371.5c-24-13.9-51.2-21.2-78.9-21.3-56 0-108.3 30.1-136.4 78.5-43.6 75.1-17.9 171.7 57.2 215.3 24 13.9 51.3 21.3 79 21.3 56 0 108.3-30.1 136.4-78.5 20.9-35.9 26.8-79.4 16-119.5-10.6-40.1-37.3-75.1-73.3-95.8z m-1.4 181.3c-16.1 27.6-45.9 44.7-77.8 44.7-15.8 0-31.3-4.2-45-12.2-42.8-24.9-57.4-79.9-32.6-122.7 16.1-27.6 45.9-44.7 77.8-44.8 15.8 0 31.3 4.2 45 12.2 20.5 11.8 35.7 31.7 41.7 54.6 6.2 23.3 3 47.5-9.1 68.2zM925.1 402.6c-16.8-17-39.2-26.6-63.2-27-4.4-0.5-17.7-1.8-36.9-3.6-9.3-21-20.6-41-33.9-59.6 8.3-18 12.4-27.1 14.3-32.1l0.3 0.1c25.3-43.9 10.3-100.3-33.5-125.7l-76.9-44.6c-14-8.1-30-12.4-46.2-12.5-32.2 0-62.8 17-78.1 43.4-1.5 2.1-9.7 13.5-22 30.7-22.8-2.3-45.8-2.2-68.6 0.1-11.5-16.3-17.3-24.5-20.8-28.7l0.2-0.1c-16.4-28.4-47-46-79.8-46-16 0-31.8 4.2-45.8 12.2l-77.1 44.3c-21.5 12.4-36.9 32.4-43.4 56.5-6.2 23-3.3 46.7 8.1 66.6 1.1 2.4 7.5 16.6 17.2 37.8-5.4 7.6-10.6 15.6-15.3 23.7-5.9 10.3-11.4 21-16.1 31.9-26 2.4-35.8 3.3-39.9 3.8-50.4 0.2-91.5 41.3-91.7 91.9l-0.2 88.9c0 24.8 9.7 48.2 27.3 65.8 16.9 16.9 38.7 26.2 61.7 26.3 2.8 0.3 20 2 45.6 4.4 8.4 17.9 18.4 35 29.8 51.2-10.6 22.9-15.6 33.9-17.7 39.8l-0.3-0.2c-12.2 20.9-15.5 46.3-9.3 69.7 6.2 23.5 21.8 43.9 42.8 56l76.9 44.6c14 8.1 29.9 12.4 46.1 12.4 32.2 0 62.8-17 78.1-43.4 1.7-2.3 11.9-16.5 26.9-37.6 19.8 1.9 39.7 2.1 59.2 0.5 14.4 20.5 21.4 30.2 25.3 34.9l-0.3 0.2c16.4 28.4 47 46 79.8 46 16 0 31.9-4.2 45.8-12.2l77.1-44.2c21.1-12 36.8-32.4 43.1-55.9 6.3-23.1 3.4-47.3-8.2-68.2-1.9-4.3-8.1-18-17.1-37.6 7.1-9.5 13.7-19.6 19.8-29.9 4.7-8.1 9-16.5 12.9-25 23.7-2.2 34-3.1 38.8-3.8v0.1c50.6-0.1 91.8-41.3 91.9-91.9l0.2-88.9c0.1-24.2-9.7-47.9-26.9-65.1zM723 680.8c-8.3 10-10.2 24-4.8 35.8 13.7 30 23.5 51.6 25.6 56.4 0.2 0.4 0.3 0.8 0.5 1 0.5 1 1 2 1.6 3 3.2 5.5 4.1 12.2 2.4 18.4-1.7 6.2-5.8 11.6-11.4 14.8l-77.1 44.3c-3.7 2.1-7.8 3.2-12 3.2-9.1 0-17.1-5.1-22.6-14.4l-0.8-1.2c-2.5-3.6-17.4-24.4-37.6-53.1-7.4-10.5-19.8-15.9-32.5-14-26.9 3.9-54.2 3.6-81-0.7-12.8-2-25.5 3.3-33 13.9-12.5 17.7-23 32.3-30.1 42.2-5.9 8.2-9.5 13.3-10.4 14.7-3 5.3-8.5 9.3-14.9 11-6.4 1.7-13.1 0.9-18.4-2.2l-76.9-44.6c-5.6-3.3-9.6-8.5-11.3-14.8-1.8-6.6-0.6-13.3 3.7-20.8l0.3-0.7c0.3-0.7 11.4-25.1 27.8-60.4 5.5-11.8 3.8-25.4-4.3-35.5-17.1-21.2-30.8-44.7-40.8-70-4.7-11.9-15.6-20.1-28.4-21.3-19.3-1.8-35.6-3.4-47.4-4.5-14-1.3-19.7-1.9-21.5-2-13.4-0.1-24.3-11-24.3-24.4l0.2-88.9c0-13.4 10.9-24.3 24.3-24.3 1.1 0 2.3-0.1 3.4-0.2 0.3 0 0.6 0 1.1-0.1 5-0.5 28.8-2.8 61.8-5.7 12.9-1.2 24.2-9.8 28.7-21.9 5.9-15.8 12.2-29.4 19.3-41.6 5.8-10.1 13-20.4 22.5-32.3 8-10 9.6-23.5 4.3-35.1-7.1-15.5-13.1-28.7-17.6-38.6-6.1-13.4-8.6-18.9-9.5-20.6-6.7-11.6-2.6-26.5 9-33.2l77.1-44.3c12-6.9 26.9-2.1 34.6 11.1l0.7 1c2 2.7 15.1 21.2 33.7 47.6 7.5 10.6 20.6 16.1 33.4 13.9 28.7-4.9 59.4-5 89-0.2 12.8 2.1 25.5-3.2 33-13.8 9.8-13.8 18.1-25.4 24.2-33.9 7.4-10.4 10.5-14.6 11.5-16.2 3.1-5.3 8.5-9.3 14.8-11 6.4-1.7 13.1-0.9 18.4 2.1l77 44.7c5.5 3.2 9.6 8.6 11.3 14.8 1.8 6.6 0.6 13.3-3.7 20.8l-1.1 1.9v0.4c-2.5 5.4-11.3 24.8-23.5 51.2-5.4 11.6-3.7 25.6 4.4 35.5 19.1 23.7 33.9 49.7 44 77.4 4.4 12.2 15.7 20.9 28.6 22.1 30.4 2.9 52.2 5.1 57.3 5.6 0.5 0.1 0.9 0.1 1.2 0.1 9.9 0.8 16.2 3.1 20.4 7.3 4.5 4.5 7.1 10.8 7.1 17.2l-0.2 89c0 13.8-11.6 24.3-26.9 24.4 0 0-0.8 0-2.2 0.2-5.8 0.6-28.6 2.7-60 5.5-12.8 1.2-23.6 9.3-28.4 21.2-5.6 13.9-10.9 25.2-16.9 35.5-7.4 12.4-16.1 24.6-26.7 37.3zM594.9 371.5c-24-13.9-51.2-21.2-78.9-21.3-56 0-108.3 30.1-136.4 78.5-43.6 75.1-17.9 171.7 57.2 215.3 24 13.9 51.3 21.3 79 21.3 56 0 108.3-30.1 136.4-78.5 20.9-35.9 26.8-79.4 16-119.5-10.6-40.1-37.3-75.1-73.3-95.8z m-1.4 181.3c-16.1 27.6-45.9 44.7-77.8 44.7-15.8 0-31.3-4.2-45-12.2-42.8-24.9-57.4-79.9-32.6-122.7 16.1-27.6 45.9-44.7 77.8-44.8 15.8 0 31.3 4.2 45 12.2 20.5 11.8 35.7 31.7 41.7 54.6 6.2 23.3 3 47.5-9.1 68.2zM924.1 402.6c-16.8-17-39.2-26.6-63.2-27-4.4-0.5-17.7-1.8-36.9-3.6-9.3-21-20.6-41-33.9-59.6 8.3-18 12.4-27.1 14.3-32.1l0.3 0.1c25.3-43.9 10.3-100.3-33.5-125.7l-76.9-44.6c-14-8.1-30-12.4-46.2-12.5-32.2 0-62.8 17-78.1 43.4-1.5 2.1-9.7 13.5-22 30.7-22.8-2.3-45.8-2.2-68.6 0.1-11.5-16.3-17.3-24.5-20.8-28.7l0.2-0.1c-16.4-28.4-47-46-79.8-46-16 0-31.8 4.2-45.8 12.2l-77.1 44.3c-21.5 12.4-36.9 32.4-43.4 56.5-6.2 23-3.3 46.7 8.1 66.6 1.1 2.4 7.5 16.6 17.2 37.8-5.4 7.6-10.6 15.6-15.3 23.7-5.9 10.3-11.4 21-16.1 31.9-26 2.4-35.8 3.3-39.9 3.8-50.4 0.2-91.5 41.3-91.7 91.9l-0.2 88.9c0 24.8 9.7 48.2 27.3 65.8 16.9 16.9 38.7 26.2 61.7 26.3 2.8 0.3 20 2 45.6 4.4 8.4 17.9 18.4 35 29.8 51.2-10.6 22.9-15.6 33.9-17.7 39.8l-0.3-0.2c-12.2 20.9-15.5 46.3-9.3 69.7 6.2 23.5 21.8 43.9 42.8 56l76.9 44.6c14 8.1 29.9 12.4 46.1 12.4 32.2 0 62.8-17 78.1-43.4 1.7-2.3 11.9-16.5 26.9-37.6 19.8 1.9 39.7 2.1 59.2 0.5 14.4 20.5 21.4 30.2 25.3 34.9l-0.3 0.2c16.4 28.4 47 46 79.8 46 16 0 31.9-4.2 45.8-12.2l77.1-44.2c21.1-12 36.8-32.4 43.1-55.9 6.3-23.1 3.4-47.3-8.2-68.2-1.9-4.3-8.1-18-17.1-37.6 7.1-9.5 13.7-19.6 19.8-29.9 4.7-8.1 9-16.5 12.9-25 23.7-2.2 34-3.1 38.8-3.8v0.1c50.6-0.1 91.8-41.3 91.9-91.9l0.2-88.9c0.1-24.2-9.7-47.9-26.9-65.1zM722 680.8c-8.3 10-10.2 24-4.8 35.8 13.7 30 23.5 51.6 25.6 56.4 0.2 0.4 0.3 0.8 0.5 1 0.5 1 1 2 1.6 3 3.2 5.5 4.1 12.2 2.4 18.4-1.7 6.2-5.8 11.6-11.4 14.8l-77.1 44.3c-3.7 2.1-7.8 3.2-12 3.2-9.1 0-17.1-5.1-22.6-14.4l-0.8-1.2c-2.5-3.6-17.4-24.4-37.6-53.1-7.4-10.5-19.8-15.9-32.5-14-26.9 3.9-54.2 3.6-81-0.7-12.8-2-25.5 3.3-33 13.9-12.5 17.7-23 32.3-30.1 42.2-5.9 8.2-9.5 13.3-10.4 14.7-3 5.3-8.5 9.3-14.9 11-6.4 1.7-13.1 0.9-18.4-2.2l-76.9-44.6c-5.6-3.3-9.6-8.5-11.3-14.8-1.8-6.6-0.6-13.3 3.7-20.8l0.3-0.7c0.3-0.7 11.4-25.1 27.8-60.4 5.5-11.8 3.8-25.4-4.3-35.5-17.1-21.2-30.8-44.7-40.8-70-4.7-11.9-15.6-20.1-28.4-21.3-19.3-1.8-35.6-3.4-47.4-4.5-14-1.3-19.7-1.9-21.5-2-13.4-0.1-24.3-11-24.3-24.4l0.2-88.9c0-13.4 10.9-24.3 24.3-24.3 1.1 0 2.3-0.1 3.4-0.2 0.3 0 0.6 0 1.1-0.1 5-0.5 28.8-2.8 61.8-5.7 12.9-1.2 24.2-9.8 28.7-21.9 5.9-15.8 12.2-29.4 19.3-41.6 5.8-10.1 13-20.4 22.5-32.3 8-10 9.6-23.5 4.3-35.1-7.1-15.5-13.1-28.7-17.6-38.6-6.1-13.4-8.6-18.9-9.5-20.6-6.7-11.6-2.6-26.5 9-33.2l77.1-44.3c12-6.9 26.9-2.1 34.6 11.1l0.7 1c2 2.7 15.1 21.2 33.7 47.6 7.5 10.6 20.6 16.1 33.4 13.9 28.7-4.9 59.4-5 89-0.2 12.8 2.1 25.5-3.2 33-13.8 9.8-13.8 18.1-25.4 24.2-33.9 7.4-10.4 10.5-14.6 11.5-16.2 3.1-5.3 8.5-9.3 14.8-11 6.4-1.7 13.1-0.9 18.4 2.1l77 44.7c5.5 3.2 9.6 8.6 11.3 14.8 1.8 6.6 0.6 13.3-3.7 20.8l-1.1 1.9v0.4c-2.5 5.4-11.3 24.8-23.5 51.2-5.4 11.6-3.7 25.6 4.4 35.5 19.1 23.7 33.9 49.7 44 77.4 4.4 12.2 15.7 20.9 28.6 22.1 30.4 2.9 52.2 5.1 57.3 5.6 0.5 0.1 0.9 0.1 1.2 0.1 9.9 0.8 16.2 3.1 20.4 7.3 4.5 4.5 7.1 10.8 7.1 17.2l-0.2 89c0 13.8-11.6 24.3-26.9 24.4 0 0-0.8 0-2.2 0.2-5.8 0.6-28.6 2.7-60 5.5-12.8 1.2-23.6 9.3-28.4 21.2-5.6 13.9-10.9 25.2-16.9 35.5-7.4 12.4-16.1 24.6-26.7 37.3zM593.9 371.5c-24-13.9-51.2-21.2-78.9-21.3-56 0-108.3 30.1-136.4 78.5-43.6 75.1-17.9 171.7 57.2 215.3 24 13.9 51.3 21.3 79 21.3 56 0 108.3-30.1 136.4-78.5 20.9-35.9 26.8-79.4 16-119.5-10.6-40.1-37.3-75.1-73.3-95.8z m-1.4 181.3c-16.1 27.6-45.9 44.7-77.8 44.7-15.8 0-31.3-4.2-45-12.2-42.8-24.9-57.4-79.9-32.6-122.7 16.1-27.6 45.9-44.7 77.8-44.8 15.8 0 31.3 4.2 45 12.2 20.5 11.8 35.7 31.7 41.7 54.6 6.2 23.3 3 47.5-9.1 68.2z" /></svg>