<?xml version="1.0" standalone="no"?><!DOCTYPE svg PUBLIC "-//W3C//DTD SVG 1.1//EN" "http://www.w3.org/Graphics/SVG/1.1/DTD/svg11.dtd"><svg class="icon" width="200px" height="200.00px" viewBox="0 0 1024 1024" version="1.1" xmlns="http://www.w3.org/2000/svg"><path fill="#000000" d="M93.090909 930.909091h837.818182V569.530182l-418.909091 209.454545-418.909091-209.454545V930.909091z m837.818182-465.454546l41.634909-20.805818L1024 476.439273v46.545454l-93.090909 46.545455V465.454545z m-46.545455-126.231272l139.636364 63.464727V1024H0V402.688l139.636364-63.464727V0h744.727272v339.223273z m0 102.260363V488.727273l49.501091-24.762182L884.363636 441.483636zM791.272727 535.272727V93.090909H232.727273v442.181818l279.272727 139.636364 279.272727-139.636364zM139.636364 488.727273v-47.243637l-49.501091 22.481455L139.636364 488.727273z m186.181818-302.545455h372.363636v93.090909H325.818182V186.181818z m0 186.181818h279.272727v93.090909H325.818182v-93.090909z"  /></svg>