<?xml version="1.0" standalone="no"?><!DOCTYPE svg PUBLIC "-//W3C//DTD SVG 1.1//EN" "http://www.w3.org/Graphics/SVG/1.1/DTD/svg11.dtd"><svg class="icon" width="200px" height="200.00px" viewBox="0 0 1024 1024" version="1.1" xmlns="http://www.w3.org/2000/svg"><path fill="#000000" d="M143.81818174 880.18181826h736.36363652V562.56363653l-368.18181826 184.09090868-368.18181826-184.09090868V880.18181826z m736.36363652-409.09090957l36.59318174-18.28636348L962 480.74545479v40.90909042l-81.81818174 40.90909132V471.09090869z m-40.90909131-110.9454539l122.72727305 55.77954521V962H62V415.925l122.72727305-55.77954521V62h654.5454539v298.14545479z m0 89.87727216V491.54545479l43.50681826-21.76363653L839.27272695 450.02272695zM757.45454521 532.45454521V143.81818174H266.54545479v388.63636347l245.45454521 122.72727305 245.45454521-122.72727305zM184.72727305 491.54545479v-41.52272784l-43.50681826 19.75909131L184.72727305 491.54545479z m163.63636347-265.90909131h327.27272695v81.81818173H348.36363653V225.63636348z m1e-8 163.63636347h245.45454521v81.81818174H348.36363653v-81.81818174z"  /></svg>