<?xml version="1.0" standalone="no"?><!DOCTYPE svg PUBLIC "-//W3C//DTD SVG 1.1//EN" "http://www.w3.org/Graphics/SVG/1.1/DTD/svg11.dtd"><svg class="icon" width="200px" height="200.00px" viewBox="0 0 1024 1024" version="1.1" xmlns="http://www.w3.org/2000/svg"><path fill="#000000" d="M938.666667 853.333333v85.333334H682.666667V512h85.333333v341.333333z m-85.333334-519.253333V469.333333h85.333334v-170.666666L725.333333 85.333333H85.333333v384h85.333334V170.666667h519.253333zM599.04 733.653333L640 938.666667h-85.333333l-34.133334-170.666667H469.333333v170.666667h-85.333333V512h128a128 128 0 0 1 87.04 221.653333zM512 682.666667a42.666667 42.666667 0 0 0 0-85.333334h-42.666667v85.333334z m-256-170.666667v298.666667a42.666667 42.666667 0 0 1-85.333333 0V512H85.333333v298.666667a128 128 0 0 0 256 0V512z" /></svg>