<?xml version="1.0" standalone="no"?><!DOCTYPE svg PUBLIC "-//W3C//DTD SVG 1.1//EN" "http://www.w3.org/Graphics/SVG/1.1/DTD/svg11.dtd"><svg class="icon" width="200px" height="200.00px" viewBox="0 0 1024 1024" version="1.1" xmlns="http://www.w3.org/2000/svg"><path fill="#000000" d="M512 64.7C264.9 64.7 64.7 264.9 64.7 512S264.9 959.3 512 959.3 959.3 759.1 959.3 512 759.1 64.7 512 64.7z m384.8 417H744.3c-3.2-63-16.1-122.8-37.1-176.5a447.8 447.8 0 0 0 87.6-55.5 384.8 384.8 0 0 1 102 232zM542.5 175.4c31.7 25.2 59.1 58.4 81.3 97.3a388.6 388.6 0 0 1-81.3 14.9z m44.9-42.2a384.3 384.3 0 0 1 161.9 74.6 386.9 386.9 0 0 1-67.8 42.1c-25.1-46.1-56.9-85.7-94.1-116.7z m-105.9 42.2v112.2a395 395 0 0 1-81.3-14.8c22.1-39 49.6-72.2 81.3-97.4z m-139 74.4a393.9 393.9 0 0 1-67.8-42 383.6 383.6 0 0 1 161.9-74.6c-37.2 31-69 70.6-94.1 116.6z m139 98.8v133.1H340.8a500.9 500.9 0 0 1 33.1-153.5 452 452 0 0 0 107.6 20.4z m0 194.1v132.7a447.2 447.2 0 0 0-107.6 20.5 502.6 502.6 0 0 1-33.1-153.2z m0 193.7v112.2c-31.7-25.2-59.2-58.4-81.3-97.4a395 395 0 0 1 81.3-14.8z m-44.3 154.5a384.4 384.4 0 0 1-162.5-74.7 384 384 0 0 1 68.7-42.4c25.2 46.2 56.9 86.1 93.8 117.1z m105.3-42.3V736.4a388.6 388.6 0 0 1 81.3 14.9c-22.1 38.9-49.6 72.1-81.3 97.3z m138.1-74.8a378.4 378.4 0 0 1 68.7 42.4 384.4 384.4 0 0 1-162.5 74.7c36.9-31 68.6-70.9 93.8-117.1z m-138.1-98.4V542.7h140.7a499.7 499.7 0 0 1-33.1 153.2 447.2 447.2 0 0 0-107.6-20.5z m0-193.7V348.6A446.4 446.4 0 0 0 650 328.1a499.3 499.3 0 0 1 33.2 153.6zM229.1 249.8a452.3 452.3 0 0 0 87.7 55.3c-21 53.8-33.9 113.6-37.1 176.6H127.2a384.5 384.5 0 0 1 101.9-231.9zM127.2 542.7h152.6c3.3 62.2 16.5 121.9 37.8 175.8a452.3 452.3 0 0 0-88.5 55.7 384.8 384.8 0 0 1-101.9-231.5z m667.6 231.6a452 452 0 0 0-88.4-55.8c21.3-53.9 34.5-113.6 37.8-175.8h152.6a384.3 384.3 0 0 1-102 231.6z"  /></svg>